<svg id="SvgjsSvg2040" width="903.8666381835938" height="442.1666717529297" xmlns="http://www.w3.org/2000/svg" version="1.1" xmlns:xlink="http://www.w3.org/1999/xlink" xmlns:svgjs="http://svgjs.com/svgjs"><defs id="SvgjsDefs2041"><marker id="SvgjsMarker2150" markerWidth="16" markerHeight="12" refX="10" refY="6" viewBox="0 0 16 12" orient="auto" markerUnits="userSpaceOnUse"><path id="SvgjsPath2151" d="M0,3 L10,6 L0,9 L0,3" fill="#323232" stroke="#323232" stroke-width="1"></path></marker><marker id="SvgjsMarker2154" markerWidth="16" markerHeight="12" refX="10" refY="6" viewBox="0 0 16 12" orient="auto" markerUnits="userSpaceOnUse"><path id="SvgjsPath2155" d="M0,3 L10,6 L0,9 L0,3" fill="#323232" stroke="#323232" stroke-width="1"></path></marker><marker id="SvgjsMarker2158" markerWidth="16" markerHeight="12" refX="10" refY="6" viewBox="0 0 16 12" orient="auto" markerUnits="userSpaceOnUse"><path id="SvgjsPath2159" d="M0,3 L10,6 L0,9 L0,3" fill="#323232" stroke="#323232" stroke-width="1"></path></marker><marker id="SvgjsMarker2162" markerWidth="16" markerHeight="12" refX="10" refY="6" viewBox="0 0 16 12" orient="auto" markerUnits="userSpaceOnUse"><path id="SvgjsPath2163" d="M0,3 L10,6 L0,9 L0,3" fill="#323232" stroke="#323232" stroke-width="1"></path></marker><marker id="SvgjsMarker2184" markerWidth="16" markerHeight="12" refX="10" refY="6" viewBox="0 0 16 12" orient="auto" markerUnits="userSpaceOnUse"><path id="SvgjsPath2185" d="M0,3 L10,6 L0,9 L0,3" fill="#323232" stroke="#323232" stroke-width="1"></path></marker><pattern id="SvgjsPattern2201" x="0" y="0" width="160" height="25" patternUnits="userSpaceOnUse"><image id="SvgjsImage2202" xlink:href="https://www.processon.com/assets/images/designer/ui_input/search.png" width="16" height="16" preserveAspectRatio="none" crossOrigin="anonymous" x="4" y="3.5"></image></pattern><marker id="SvgjsMarker2227" markerWidth="16" markerHeight="12" refX="10" refY="6" viewBox="0 0 16 12" orient="auto" markerUnits="userSpaceOnUse"><path id="SvgjsPath2228" d="M0,3 L10,6 L0,9 L0,3" fill="#323232" stroke="#323232" stroke-width="1"></path></marker><marker id="SvgjsMarker2237" markerWidth="16" markerHeight="12" refX="10" refY="6" viewBox="0 0 16 12" orient="auto" markerUnits="userSpaceOnUse"><path id="SvgjsPath2238" d="M0,3 L10,6 L0,9 L0,3" fill="#323232" stroke="#323232" stroke-width="1"></path></marker><marker id="SvgjsMarker2307" markerWidth="16" markerHeight="12" refX="16" refY="6" viewBox="0 0 16 12" orient="auto" markerUnits="userSpaceOnUse"><path id="SvgjsPath2308" d="M0,2 L14,6 L0,11 L0,2" fill="#323232" stroke="#323232" stroke-width="2"></path></marker></defs><g id="SvgjsG2042" transform="translate(478.2835607136399,254.166384489758)"><path id="SvgjsPath2043" d="M 0 0L 297.1156514224922 0L 297.1156514224922 162.60026284910919L 0 162.60026284910919Z" stroke-dasharray="10,6" stroke="rgba(0,0,0,1)" stroke-width="2" fill="none"></path><g id="SvgjsG2044"><text id="SvgjsText2045" font-family="微软雅黑" text-anchor="start" font-size="14px" width="95" fill="#323232" font-weight="400" align="top" anchor="start" family="微软雅黑" size="14px" weight="400" font-style="" opacity="1" y="-2.1" transform="rotate(0)"><tspan id="SvgjsTspan2046" dy="17" x="10"><tspan id="SvgjsTspan2047" style="text-decoration:;">sort algorithm</tspan></tspan></text></g></g><g id="SvgjsG2048" transform="translate(478.2835607136399,25.00318824247529)"><path id="SvgjsPath2049" d="M 0 0L 297.1156514224922 0L 297.1156514224922 190.10891669360439L 0 190.10891669360439Z" stroke-dasharray="10,6" stroke="rgba(0,0,0,1)" stroke-width="2" fill="none"></path><g id="SvgjsG2050"><text id="SvgjsText2051" font-family="微软雅黑" text-anchor="start" font-size="14px" width="96" fill="#323232" font-weight="400" align="top" anchor="start" family="微软雅黑" size="14px" weight="400" font-style="" opacity="1" y="-2.1" transform="rotate(0)"><tspan id="SvgjsTspan2052" dy="17" x="10"><tspan id="SvgjsTspan2053" style="text-decoration:;">inverted index</tspan></tspan></text></g></g><g id="SvgjsG2054" transform="translate(556.7253989609854,57.631192666832476)"><path id="SvgjsPath2055" d="M 0 0L 95.45454545454538 0L 95.45454545454538 136.93545772379252L 0 136.93545772379252Z" stroke="none" fill-opacity="1" fill="#ffffff"></path><path id="SvgjsPath2056" d="M 0 0L 95.45454545454538 0L 95.45454545454538 19.5L 0 19.5Z" stroke="none" fill-opacity="1" fill="#dadada"></path><path id="SvgjsPath2057" d="M 0 19.5L 95.45454545454538 19.5M 0 39.5L 95.45454545454538 39.5M 0 59.5L 95.45454545454538 59.5M 0 78.5L 95.45454545454538 78.5M 0 98.5L 95.45454545454538 98.5M 0 117.5L 95.45454545454538 117.5M 47.5 0L 47.5 136.93545772379252" stroke="rgba(138,138,138,1)" stroke-width="1" fill="none"></path><path id="SvgjsPath2058" d="M 0 0L 95.45454545454538 0L 95.45454545454538 136.93545772379252L 0 136.93545772379252Z" stroke="rgba(138,138,138,1)" stroke-width="2" fill="none"></path><g id="SvgjsG2059"><text id="SvgjsText2060" font-family="微软雅黑" text-anchor="middle" font-size="14px" width="32" fill="#323232" font-weight="400" align="middle" anchor="middle" family="微软雅黑" size="14px" weight="400" font-style="" opacity="1" y="-1.6" transform="rotate(0)"><tspan id="SvgjsTspan2061" dy="17" x="23.5"><tspan id="SvgjsTspan2062" style="text-decoration:;">term</tspan></tspan></text></g><g id="SvgjsG2063"><text id="SvgjsText2064" font-family="微软雅黑" text-anchor="middle" font-size="14px" width="27" fill="#323232" font-weight="400" align="middle" anchor="middle" family="微软雅黑" size="14px" weight="400" font-style="" opacity="1" y="-1.6" transform="rotate(0)"><tspan id="SvgjsTspan2065" dy="17" x="70.5"><tspan id="SvgjsTspan2066" style="text-decoration:;">freq</tspan></tspan></text></g><g id="SvgjsG2067"><text id="SvgjsText2068" font-family="微软雅黑" text-anchor="middle" font-size="14px" width="23" fill="#323232" font-weight="400" align="middle" anchor="middle" family="微软雅黑" size="14px" weight="400" font-style="" opacity="1" y="17.4" transform="rotate(0)"><tspan id="SvgjsTspan2069" dy="17" x="23.5"><tspan id="SvgjsTspan2070" style="text-decoration:;">ace</tspan></tspan></text></g><g id="SvgjsG2071"><text id="SvgjsText2072" font-family="微软雅黑" text-anchor="middle" font-size="14px" width="25" fill="#323232" font-weight="400" align="middle" anchor="middle" family="微软雅黑" size="14px" weight="400" font-style="" opacity="1" y="17.4" transform="rotate(0)"><tspan id="SvgjsTspan2073" dy="17" x="70.5"><tspan id="SvgjsTspan2074" style="text-decoration:;">233</tspan></tspan></text></g><g id="SvgjsG2075"><text id="SvgjsText2076" font-family="微软雅黑" text-anchor="middle" font-size="14px" width="37" fill="#323232" font-weight="400" align="middle" anchor="middle" family="微软雅黑" size="14px" weight="400" font-style="" opacity="1" y="37.4" transform="rotate(0)"><tspan id="SvgjsTspan2077" dy="17" x="23.5"><tspan id="SvgjsTspan2078" style="text-decoration:;">azure</tspan></tspan></text></g><g id="SvgjsG2079"><text id="SvgjsText2080" font-family="微软雅黑" text-anchor="middle" font-size="14px" width="25" fill="#323232" font-weight="400" align="middle" anchor="middle" family="微软雅黑" size="14px" weight="400" font-style="" opacity="1" y="37.4" transform="rotate(0)"><tspan id="SvgjsTspan2081" dy="17" x="70.5"><tspan id="SvgjsTspan2082" style="text-decoration:;">133</tspan></tspan></text></g><g id="SvgjsG2083"><text id="SvgjsText2084" font-family="微软雅黑" text-anchor="middle" font-size="14px" width="10" fill="#323232" font-weight="400" align="middle" anchor="middle" family="微软雅黑" size="14px" weight="400" font-style="" opacity="1" y="57.4" transform="rotate(0)"><tspan id="SvgjsTspan2085" dy="17" x="23.5"><tspan id="SvgjsTspan2086" style="text-decoration:;">...</tspan></tspan></text></g><g id="SvgjsG2087"><text id="SvgjsText2088" font-family="微软雅黑" text-anchor="middle" font-size="14px" width="10" fill="#323232" font-weight="400" align="middle" anchor="middle" family="微软雅黑" size="14px" weight="400" font-style="" opacity="1" y="57.4" transform="rotate(0)"><tspan id="SvgjsTspan2089" dy="17" x="70.5"><tspan id="SvgjsTspan2090" style="text-decoration:;">...</tspan></tspan></text></g><g id="SvgjsG2091"><text id="SvgjsText2092" font-family="微软雅黑" text-anchor="middle" font-size="14px" width="10" fill="#323232" font-weight="400" align="middle" anchor="middle" family="微软雅黑" size="14px" weight="400" font-style="" opacity="1" y="76.4" transform="rotate(0)"><tspan id="SvgjsTspan2093" dy="17" x="23.5"><tspan id="SvgjsTspan2094" style="text-decoration:;">...</tspan></tspan></text></g><g id="SvgjsG2095"><text id="SvgjsText2096" font-family="微软雅黑" text-anchor="middle" font-size="14px" width="10" fill="#323232" font-weight="400" align="middle" anchor="middle" family="微软雅黑" size="14px" weight="400" font-style="" opacity="1" y="76.4" transform="rotate(0)"><tspan id="SvgjsTspan2097" dy="17" x="70.5"><tspan id="SvgjsTspan2098" style="text-decoration:;">...</tspan></tspan></text></g><g id="SvgjsG2099"><text id="SvgjsText2100" font-family="微软雅黑" text-anchor="middle" font-size="14px" width="10" fill="#323232" font-weight="400" align="middle" anchor="middle" family="微软雅黑" size="14px" weight="400" font-style="" opacity="1" y="96.4" transform="rotate(0)"><tspan id="SvgjsTspan2101" dy="17" x="23.5"><tspan id="SvgjsTspan2102" style="text-decoration:;">...</tspan></tspan></text></g><g id="SvgjsG2103"><text id="SvgjsText2104" font-family="微软雅黑" text-anchor="middle" font-size="14px" width="10" fill="#323232" font-weight="400" align="middle" anchor="middle" family="微软雅黑" size="14px" weight="400" font-style="" opacity="1" y="96.4" transform="rotate(0)"><tspan id="SvgjsTspan2105" dy="17" x="70.5"><tspan id="SvgjsTspan2106" style="text-decoration:;">...</tspan></tspan></text></g><g id="SvgjsG2107"><text id="SvgjsText2108" font-family="微软雅黑" text-anchor="middle" font-size="14px" width="28" fill="#323232" font-weight="400" align="middle" anchor="middle" family="微软雅黑" size="14px" weight="400" font-style="" opacity="1" y="115.4" transform="rotate(0)"><tspan id="SvgjsTspan2109" dy="17" x="23.5"><tspan id="SvgjsTspan2110" style="text-decoration:;">zulu</tspan></tspan></text></g><g id="SvgjsG2111"><text id="SvgjsText2112" font-family="微软雅黑" text-anchor="middle" font-size="14px" width="16" fill="#323232" font-weight="400" align="middle" anchor="middle" family="微软雅黑" size="14px" weight="400" font-style="" opacity="1" y="115.4" transform="rotate(0)"><tspan id="SvgjsTspan2113" dy="17" x="70.5"><tspan id="SvgjsTspan2114" style="text-decoration:;">23</tspan></tspan></text></g></g><g id="SvgjsG2115" transform="translate(685.1055637458188,56.72210175774171)"><path id="SvgjsPath2116" d="M 0 0L 80.71074430607575 0L 80.71074430607575 138.75363954197428L 0 138.75363954197428Z" stroke="none" fill-opacity="1" fill="#ffffff"></path><path id="SvgjsPath2117" d="M 0 0L 80.71074430607575 0L 80.71074430607575 20.5L 0 20.5Z" stroke="none" fill-opacity="1" fill="#dadada"></path><path id="SvgjsPath2118" d="M 0 20.5L 80.71074430607575 20.5M 0 39.5L 80.71074430607575 39.5M 0 59.5L 80.71074430607575 59.5M 0 79.5L 80.71074430607575 79.5M 0 99.5L 80.71074430607575 99.5M 0 119.5L 80.71074430607575 119.5" stroke="rgba(138,138,138,1)" stroke-width="1" fill="none"></path><path id="SvgjsPath2119" d="M 0 0L 80.71074430607575 0L 80.71074430607575 138.75363954197428L 0 138.75363954197428Z" stroke="rgba(138,138,138,1)" stroke-width="2" fill="none"></path><g id="SvgjsG2120"><text id="SvgjsText2121" font-family="微软雅黑" text-anchor="middle" font-size="14px" width="51" fill="#323232" font-weight="400" align="middle" anchor="middle" family="微软雅黑" size="14px" weight="400" font-style="" opacity="1" y="-1.6" transform="rotate(0)"><tspan id="SvgjsTspan2122" dy="17" x="40"><tspan id="SvgjsTspan2123" style="text-decoration:;">posting</tspan></tspan></text></g><g id="SvgjsG2124"><text id="SvgjsText2125" font-family="微软雅黑" text-anchor="middle" font-size="14px" width="10" fill="#323232" font-weight="400" align="middle" anchor="middle" family="微软雅黑" size="14px" weight="400" font-style="" opacity="1" y="17.9" transform="rotate(0)"><tspan id="SvgjsTspan2126" dy="17" x="40"><tspan id="SvgjsTspan2127" style="text-decoration:;">&lt;d1, tf1&gt;,..</tspan></tspan></text></g><g id="SvgjsG2128"><text id="SvgjsText2129" font-family="微软雅黑" text-anchor="middle" font-size="14px" width="10" fill="#323232" font-weight="400" align="middle" anchor="middle" family="微软雅黑" size="14px" weight="400" font-style="" opacity="1" y="38.9" transform="rotate(0)"><tspan id="SvgjsTspan2130" dy="17" x="40"><tspan id="SvgjsTspan2131" style="text-decoration:;">&lt;d2, tf2&gt;,..</tspan></tspan></text></g><g id="SvgjsG2132"><text id="SvgjsText2133" font-family="微软雅黑" text-anchor="middle" font-size="14px" width="10" fill="#323232" font-weight="400" align="middle" anchor="middle" family="微软雅黑" size="14px" weight="400" font-style="" opacity="1" y="58.4" transform="rotate(0)"><tspan id="SvgjsTspan2134" dy="17" x="40"><tspan id="SvgjsTspan2135" style="text-decoration:;">...</tspan></tspan></text></g><g id="SvgjsG2136"><text id="SvgjsText2137" font-family="微软雅黑" text-anchor="middle" font-size="14px" width="10" fill="#323232" font-weight="400" align="middle" anchor="middle" family="微软雅黑" size="14px" weight="400" font-style="" opacity="1" y="77.9" transform="rotate(0)"><tspan id="SvgjsTspan2138" dy="17" x="40"><tspan id="SvgjsTspan2139" style="text-decoration:;">...</tspan></tspan></text></g><g id="SvgjsG2140"><text id="SvgjsText2141" font-family="微软雅黑" text-anchor="middle" font-size="14px" width="10" fill="#323232" font-weight="400" align="middle" anchor="middle" family="微软雅黑" size="14px" weight="400" font-style="" opacity="1" y="97.4" transform="rotate(0)"><tspan id="SvgjsTspan2142" dy="17" x="40"><tspan id="SvgjsTspan2143" style="text-decoration:;">...</tspan></tspan></text></g><g id="SvgjsG2144"><text id="SvgjsText2145" font-family="微软雅黑" text-anchor="middle" font-size="14px" width="10" fill="#323232" font-weight="400" align="middle" anchor="middle" family="微软雅黑" size="14px" weight="400" font-style="" opacity="1" y="117.9" transform="rotate(0)"><tspan id="SvgjsTspan2146" dy="17" x="40"><tspan id="SvgjsTspan2147" style="text-decoration:;">&lt;d3,tf3&gt;,..</tspan></tspan></text></g></g><g id="SvgjsG2148"><path id="SvgjsPath2149" d="M653.0890353246217 84.97318838700471L665.8163080518945 84.97318838700471L665.8163080518945 84.97318838700471L678.5435807791672 84.97318838700471" stroke-dasharray="8,5" stroke="#323232" stroke-width="1" fill="none" marker-end="url(#SvgjsMarker2150)"></path></g><g id="SvgjsG2152"><path id="SvgjsPath2153" d="M653.0890353246217 107.70046111427746L665.8163080518947 107.70046111427746L665.8163080518947 107.70046111427746L678.5435807791674 107.70046111427746" stroke-dasharray="8,5" stroke="#323232" stroke-width="1" fill="none" marker-end="url(#SvgjsMarker2154)"></path></g><g id="SvgjsG2156"><path id="SvgjsPath2157" d="M653.0890353246217 126.79137020518647L665.8163080518945 126.79137020518647L665.8163080518945 126.79137020518647L678.5435807791674 126.79137020518647" stroke-dasharray="8,5" stroke="#323232" stroke-width="1" fill="none" marker-end="url(#SvgjsMarker2158)"></path></g><g id="SvgjsG2160"><path id="SvgjsPath2161" d="M653.0890353246217 184.9731883870047L667.1799444155309 184.9731883870047L667.1799444155309 184.9731883870047L681.2708535064402 184.9731883870047" stroke-dasharray="8,5" stroke="#323232" stroke-width="1" fill="none" marker-end="url(#SvgjsMarker2162)"></path></g><g id="SvgjsG2164" transform="translate(656.5848543355513,140.26658236248386)"><path id="SvgjsPath2165" d="M 0 0L 23.39711852678167 0L 23.39711852678167 24.322916097525116L 0 24.322916097525116Z" stroke="none" fill="none"></path><g id="SvgjsG2166"><text id="SvgjsText2167" font-family="微软雅黑" text-anchor="middle" font-size="13px" width="9" fill="#323232" font-weight="400" align="middle" anchor="middle" family="微软雅黑" size="13px" weight="400" font-style="" opacity="1" y="2.211458048762558" transform="rotate(0)"><tspan id="SvgjsTspan2168" dy="16" x="12"><tspan id="SvgjsTspan2169" style="text-decoration:;">...</tspan></tspan></text></g></g><g id="SvgjsG2170" transform="translate(488.5435807791672,56.72210175774171)"><path id="SvgjsPath2171" d="M 0 4Q 0 0 4 0L 47.81818181818187 0Q 51.81818181818187 0 51.81818181818187 4L 51.81818181818187 134.75363954197428Q 51.81818181818187 138.75363954197428 47.81818181818187 138.75363954197428L 4 138.75363954197428Q 0 138.75363954197428 0 134.75363954197428Z" stroke="rgba(50,50,50,1)" stroke-width="2" fill-opacity="1" fill="#ffffff"></path><g id="SvgjsG2172"><text id="SvgjsText2173" font-family="微软雅黑" text-anchor="middle" font-size="12px" width="29" fill="#323232" font-weight="400" align="middle" anchor="middle" family="微软雅黑" size="12px" weight="400" font-style="" opacity="1" y="37.57681977098714" transform="rotate(0)"><tspan id="SvgjsTspan2174" dy="15" x="26"><tspan id="SvgjsTspan2175" style="text-decoration:;">Hash</tspan></tspan><tspan id="SvgjsTspan2176" dy="15" x="26"><tspan id="SvgjsTspan2177" style="text-decoration:;">to </tspan></tspan><tspan id="SvgjsTspan2178" dy="15" x="26"><tspan id="SvgjsTspan2179" style="text-decoration:;">get</tspan></tspan><tspan id="SvgjsTspan2180" dy="15" x="26"><tspan id="SvgjsTspan2181" style="text-decoration:;">term</tspan></tspan></text></g></g><g id="SvgjsG2182"><path id="SvgjsPath2183" d="M540.3617625973491 126.09892152872885C 545.3666839599609 105.96665954589844 549.6344898700763 103.64501322486149 555.8163080518945 88.67574102228332" stroke-dasharray="8,5" stroke="#323232" stroke-width="1" fill="none" marker-end="url(#SvgjsMarker2184)"></path></g><g id="SvgjsG2186" transform="translate(110.34239417687104,83.00318824247529)"><path id="SvgjsPath2187" d="M 0 4Q 0 0 4 0L 255.07300162829222 0Q 259.0730016282922 0 259.0730016282922 4L 259.0730016282922 123.56344688936065Q 259.0730016282922 127.56344688936065 255.07300162829222 127.56344688936065L 4 127.56344688936065Q 0 127.56344688936065 0 123.56344688936065Z" stroke="rgba(218,218,218,1)" stroke-width="2" fill-opacity="1" fill="#ffffff"></path><path id="SvgjsPath2188" d="M 0 30L 0 4Q 0 0 4 0L 255.07300162829222 0Q 259.0730016282922 0 259.0730016282922 4L 259.0730016282922 30Z" stroke="rgba(218,218,218,1)" stroke-width="2" fill-opacity="1" fill="#dadada"></path><path id="SvgjsPath2189" d="M 10 15C 10 10 18 10 18 15C 18 20 10 20 10 15Z" stroke="none" fill-opacity="1" fill="#ffffff"></path><path id="SvgjsPath2190" d="M 23 15C 23 10 31 10 31 15C 31 20 23 20 23 15Z" stroke="none" fill-opacity="1" fill="#ffffff"></path><path id="SvgjsPath2191" d="M 36 15C 36 10 44 10 44 15C 44 20 36 20 36 15Z" stroke="none" fill-opacity="1" fill="#ffffff"></path><path id="SvgjsPath2192" d="M 55 9Q 55 5 59 5L 250.07300162829222 5Q 254.07300162829222 5 254.07300162829222 9L 254.07300162829222 21Q 254.07300162829222 25 250.07300162829222 25L 59 25Q 55 25 55 21Z" stroke="none" fill-opacity="1" fill="#ffffff"></path><path id="SvgjsPath2193" d="M 0 0L 259.0730016282922 0L 259.0730016282922 127.56344688936065L 0 127.56344688936065Z" stroke="none" fill="none"></path><g id="SvgjsG2194"><text id="SvgjsText2195" font-family="微软雅黑" text-anchor="start" font-size="13px" width="175" fill="#323232" font-weight="400" align="middle" anchor="start" family="微软雅黑" size="13px" weight="400" font-style="" opacity="1" y="5.05" transform="rotate(0)"><tspan id="SvgjsTspan2196" dy="16" x="60"><tspan id="SvgjsTspan2197" style="text-decoration:;">http://localhost:8080/search</tspan></tspan></text></g></g><g id="SvgjsG2198" transform="translate(165.6724153713442,140.06663513183594)"><path id="SvgjsPath2199" d="M 0.5 0.5L 159.5 0.5L 159.5 24.5L 0.5 24.5Z" stroke="rgba(138,138,138,1)" stroke-width="1" fill-opacity="1" fill="#ffffff"></path><path id="SvgjsPath2200" d="M 0 0L 160 0L 160 25L 0 25Z" stroke="none" fill="url(#SvgjsPattern2201)"></path><g id="SvgjsG2203"><text id="SvgjsText2204" font-family="微软雅黑" text-anchor="start" font-size="14px" width="0" fill="#323232" font-weight="400" align="middle" anchor="start" family="微软雅黑" size="14px" weight="400" font-style="" opacity="1" y="1.4" transform="rotate(0)"></text></g></g><g id="SvgjsG2205" transform="translate(102.41539580516326,165.06663513183594)"><path id="SvgjsPath2206" d="M 0 0L 120 0L 120 40L 0 40Z" stroke="none" fill="none"></path><g id="SvgjsG2207"><text id="SvgjsText2208" font-family="微软雅黑" text-anchor="middle" font-size="13px" width="88" fill="#323232" font-weight="400" align="middle" anchor="middle" family="微软雅黑" size="13px" weight="400" font-style="" opacity="1" y="10.05" transform="rotate(0)"><tspan id="SvgjsTspan2209" dy="16" x="60"><tspan id="SvgjsTspan2210" style="text-decoration:;">Front end GUI</tspan></tspan></text></g></g><g id="SvgjsG2211" transform="translate(381.0506276876994,91.96665954589844)"><path id="SvgjsPath2212" d="M 0 15.872991943359375L 58.466065427535 15.872991943359375L 58.466065427535 0L 82.51605322050375 24.04998779296875L 58.466065427535 48.0999755859375L 58.466065427535 32.226983642578126L 0 32.226983642578126L 0 15.872991943359375Z" stroke="rgba(50,50,50,1)" stroke-width="2" fill-opacity="1" fill="#ffffff"></path><g id="SvgjsG2213"><text id="SvgjsText2214" font-family="微软雅黑" text-anchor="middle" font-size="13px" width="36" fill="#323232" font-weight="400" align="middle" anchor="middle" family="微软雅黑" size="13px" weight="400" font-style="" opacity="1" y="14.09998779296875" transform="rotate(0)"><tspan id="SvgjsTspan2215" dy="16" x="41.5"><tspan id="SvgjsTspan2216" style="text-decoration:;">query</tspan></tspan></text></g></g><g id="SvgjsG2217" transform="translate(790.8586734046388,205.06663513183594)"><path id="SvgjsPath2218" d="M 0 4Q 0 0 4 0L 84 0Q 88 0 88 4L 88 45.099749357922065Q 88 49.099749357922065 84 49.099749357922065L 4 49.099749357922065Q 0 49.099749357922065 0 45.099749357922065Z" stroke="rgba(50,50,50,1)" stroke-width="2" fill-opacity="1" fill="#ffffff"></path><g id="SvgjsG2219"><text id="SvgjsText2220" font-family="微软雅黑" text-anchor="middle" font-size="13px" width="53" fill="#323232" font-weight="400" align="middle" anchor="middle" family="微软雅黑" size="13px" weight="400" font-style="" opacity="1" y="6.599874678961032" transform="rotate(0)"><tspan id="SvgjsTspan2221" dy="16" x="44"><tspan id="SvgjsTspan2222" style="text-decoration:;">Fetch </tspan></tspan><tspan id="SvgjsTspan2223" dy="16" x="44"><tspan id="SvgjsTspan2224" style="text-decoration:;">postings</tspan></tspan></text></g></g><g id="SvgjsG2225"><path id="SvgjsPath2226" d="M775.3992121361321 120.05764658927751C 816.8951505732753 120.05764658927751 834.8586734046388 163.57069669469274 834.8586734046388 205.06663513183594" stroke-dasharray="8,5" stroke="#323232" stroke-width="1" fill="none" marker-end="url(#SvgjsMarker2227)"></path></g><g id="SvgjsG2229" transform="translate(512.6256366622894,283.7666473388672)"><path id="SvgjsPath2230" d="M 0 4Q 0 0 4 0L 96 0Q 100 0 100 4L 100 43Q 100 47 96 47L 4 47Q 0 47 0 43Z" stroke="rgba(50,50,50,1)" stroke-width="2" fill-opacity="1" fill="#ffffcc"></path><g id="SvgjsG2231"><text id="SvgjsText2232" font-family="微软雅黑" text-anchor="middle" font-size="13px" width="46" fill="#323232" font-weight="400" align="middle" anchor="middle" family="微软雅黑" size="13px" weight="400" font-style="" opacity="1" y="13.55" transform="rotate(0)"><tspan id="SvgjsTspan2233" dy="16" x="50"><tspan id="SvgjsTspan2234" style="text-decoration:;">Jaccard</tspan></tspan></text></g></g><g id="SvgjsG2235"><path id="SvgjsPath2236" d="M834.8586734046388 254.166384489758C 834.8586734046388 294.4556166075155 815.6884442538895 335.4665159143126 775.3992121361321 335.4665159143126" stroke-dasharray="8,5" stroke="#323232" stroke-width="1" fill="none" marker-end="url(#SvgjsMarker2237)"></path></g><g id="SvgjsG2239" transform="translate(626.742814106468,283.7666473388672)"><path id="SvgjsPath2240" d="M 0 4Q 0 0 4 0L 109.89242605440472 0Q 113.89242605440472 0 113.89242605440472 4L 113.89242605440472 43Q 113.89242605440472 47 109.89242605440472 47L 4 47Q 0 47 0 43Z" stroke="rgba(50,50,50,1)" stroke-width="2" fill-opacity="1" fill="#e6ffcc"></path><g id="SvgjsG2241"><text id="SvgjsText2242" font-family="微软雅黑" text-anchor="middle" font-size="13px" width="74" fill="#323232" font-weight="400" align="middle" anchor="middle" family="微软雅黑" size="13px" weight="400" font-style="" opacity="1" y="13.55" transform="rotate(0)"><tspan id="SvgjsTspan2243" dy="16" x="57"><tspan id="SvgjsTspan2244" style="text-decoration:;">TF similarity</tspan></tspan></text></g></g><g id="SvgjsG2245" transform="translate(512.6256366622894,350.7666473388672)"><path id="SvgjsPath2246" d="M 0 4Q 0 0 4 0L 69.74104729767157 0Q 73.74104729767157 0 73.74104729767157 4L 73.74104729767157 43Q 73.74104729767157 47 69.74104729767157 47L 4 47Q 0 47 0 43Z" stroke="rgba(50,50,50,1)" stroke-width="2" fill-opacity="1" fill="#ccffcc"></path><g id="SvgjsG2247"><text id="SvgjsText2248" font-family="微软雅黑" text-anchor="middle" font-size="13px" width="47" fill="#323232" font-weight="400" align="middle" anchor="middle" family="微软雅黑" size="13px" weight="400" font-style="" opacity="1" y="5.55" transform="rotate(0)"><tspan id="SvgjsTspan2249" dy="16" x="37"><tspan id="SvgjsTspan2250" style="text-decoration:;">TF-IDF</tspan></tspan><tspan id="SvgjsTspan2251" dy="16" x="37"><tspan id="SvgjsTspan2252" style="text-decoration:;">(lnc-ltc)</tspan></tspan></text></g></g><g id="SvgjsG2253" transform="translate(600.742814106468,350.7666473388672)"><path id="SvgjsPath2254" d="M 0 4Q 0 0 4 0L 55.62386985349292 0Q 59.62386985349292 0 59.62386985349292 4L 59.62386985349292 43Q 59.62386985349292 47 55.62386985349292 47L 4 47Q 0 47 0 43Z" stroke="rgba(50,50,50,1)" stroke-width="2" fill-opacity="1" fill="#ccffff"></path><g id="SvgjsG2255"><text id="SvgjsText2256" font-family="微软雅黑" text-anchor="middle" font-size="13px" width="36" fill="#323232" font-weight="400" align="middle" anchor="middle" family="微软雅黑" size="13px" weight="400" font-style="" opacity="1" y="13.55" transform="rotate(0)"><tspan id="SvgjsTspan2257" dy="16" x="30"><tspan id="SvgjsTspan2258" style="text-decoration:;">BM25</tspan></tspan></text></g></g><g id="SvgjsG2259" transform="translate(676.5848543355513,350.7666473388672)"><path id="SvgjsPath2260" d="M 0 4Q 0 0 4 0L 60.05038582532143 0Q 64.05038582532143 0 64.05038582532143 4L 64.05038582532143 43Q 64.05038582532143 47 60.05038582532143 47L 4 47Q 0 47 0 43Z" stroke="rgba(50,50,50,1)" stroke-width="2" fill-opacity="1" fill="#cce5ff"></path><g id="SvgjsG2261"><text id="SvgjsText2262" font-family="微软雅黑" text-anchor="middle" font-size="13px" width="41" fill="#323232" font-weight="400" align="middle" anchor="middle" family="微软雅黑" size="13px" weight="400" font-style="" opacity="1" y="5.55" transform="rotate(0)"><tspan id="SvgjsTspan2263" dy="16" x="32.5"><tspan id="SvgjsTspan2264" style="text-decoration:;">Better</tspan></tspan><tspan id="SvgjsTspan2265" dy="16" x="32.5"><tspan id="SvgjsTspan2266" style="text-decoration:;">TF-IDF</tspan></tspan></text></g></g><g id="SvgjsG2267" transform="translate(360.5179690630008,309.7666473388672)"><path id="SvgjsPath2268" d="M 0 25.699868575445407L 25.699868575445407 0L 25.699868575445407 16.96191325979397L 103.04871184520232 16.96191325979397L 103.04871184520232 34.43782389109685L 25.699868575445407 34.43782389109685L 25.699868575445407 51.399737150890815L 0 25.699868575445407Z" stroke="rgba(50,50,50,1)" stroke-width="2" fill-opacity="1" fill="#ffffff"></path><g id="SvgjsG2269"><text id="SvgjsText2270" font-family="微软雅黑" text-anchor="middle" font-size="13px" width="49" fill="#323232" font-weight="400" align="middle" anchor="middle" family="微软雅黑" size="13px" weight="400" font-style="" opacity="1" y="15.749868575445408" transform="rotate(0)"><tspan id="SvgjsTspan2271" dy="16" x="52"><tspan id="SvgjsTspan2272" style="text-decoration:;">rank list</tspan></tspan></text></g></g><g id="SvgjsG2273" transform="translate(25.001447971387847,303.7666473388672)"><path id="SvgjsPath2274" d="M 15 0L 88.33333333333333 0C 103.18181818181819 0 103.18181818181819 70 88.33333333333333 70L 15 70C -5 70 -5 0 15 0ZM 88.33333333333333 0C 73.75 0 73.75 70 88.33333333333333 70C 73.75 70 73.75 0 88.33333333333333 0" stroke="rgba(50,50,50,1)" stroke-width="2" fill-opacity="1" fill="#ffffff"></path><g id="SvgjsG2275"><text id="SvgjsText2276" font-family="微软雅黑" text-anchor="middle" font-size="13px" width="48" fill="#323232" font-weight="400" align="middle" anchor="middle" family="微软雅黑" size="13px" weight="400" font-style="" opacity="1" y="17.05" transform="rotate(0)"><tspan id="SvgjsTspan2277" dy="16" x="40"><tspan id="SvgjsTspan2278" style="text-decoration:;">original</tspan></tspan><tspan id="SvgjsTspan2279" dy="16" x="40"><tspan id="SvgjsTspan2280" style="text-decoration:;">content</tspan></tspan></text></g></g><g id="SvgjsG2281" transform="translate(155.16265135991728,291.7666473388672)"><path id="SvgjsPath2282" d="M 0 4Q 0 0 4 0L 177.01952802285382 0Q 181.01952802285382 0 181.01952802285382 4L 181.01952802285382 90Q 181.01952802285382 94 177.01952802285382 94L 4 94Q 0 94 0 90Z" stroke="rgba(50,50,50,1)" stroke-width="2" fill-opacity="1" fill="#ffffff"></path><g id="SvgjsG2283"><text id="SvgjsText2284" font-family="微软雅黑" text-anchor="start" font-size="13px" width="79" fill="#323232" font-weight="400" align="top" anchor="start" family="微软雅黑" size="13px" weight="400" font-style="" opacity="1" y="-1.95" transform="rotate(0)"><tspan id="SvgjsTspan2285" dy="16" x="10"><tspan id="SvgjsTspan2286" style="text-decoration:;">get windows</tspan></tspan></text></g></g><g id="SvgjsG2287" transform="translate(172.11795990772737,315.7666473388672)"><path id="SvgjsPath2288" d="M 0 0L 131.10891092723364 0L 147.10891092723364 16L 147.10891092723364 52L 0 52L 0 0Z" stroke="none" fill-opacity="1" fill="#ffffaa"></path><path id="SvgjsPath2289" d="M 131.10891092723364 0L 131.10891092723364 16L 147.10891092723364 16Z" stroke="none" fill-opacity="1" fill="#cdcdcd"></path><path id="SvgjsPath2290" d="M 0 0L 131.10891092723364 0L 147.10891092723364 16L 147.10891092723364 52L 0 52L 0 0Z" stroke="none" fill="none"></path><g id="SvgjsG2291"><text id="SvgjsText2292" font-family="微软雅黑" text-anchor="start" font-size="13px" width="121" fill="#323232" font-weight="400" align="middle" anchor="start" family="微软雅黑" size="13px" weight="400" font-style="" opacity="1" y="8.05" transform="rotate(0)"><tspan id="SvgjsTspan2293" dy="16" x="10"><tspan id="SvgjsTspan2294" style="text-decoration:;">Page content... this </tspan></tspan><tspan id="SvgjsTspan2295" dy="16" x="10"><tspan id="SvgjsTspan2296" style="text-decoration:;">is the result </tspan><tspan id="SvgjsTspan2297" style="text-decoration:;null">query</tspan><tspan id="SvgjsTspan2298" style="text-decoration:;">...</tspan></tspan></text></g></g><g id="SvgjsG2299" transform="translate(227.27465884554516,217.7666473388672)"><path id="SvgjsPath2300" d="M 18.397756525799025 0L 36.79551305159805 18.397756525799025L 24.652993744570693 18.397756525799025L 24.652993744570693 63L 12.142519307027356 63L 12.142519307027356 18.397756525799025L 0 18.397756525799025L 18.397756525799025 0Z" stroke="rgba(50,50,50,1)" stroke-width="2" fill-opacity="1" fill="#ffffff"></path><g id="SvgjsG2301"><text id="SvgjsText2302" font-family="微软雅黑" text-anchor="middle" font-size="13px" width="4" fill="#323232" font-weight="400" align="middle" anchor="middle" family="微软雅黑" size="13px" weight="400" font-style="" opacity="1" y="24.7" transform="rotate(0)"><tspan id="SvgjsTspan2303" dy="16" x="18.64089738968039"><tspan id="SvgjsTspan2304" style="text-decoration:;"> </tspan></tspan></text></g></g><g id="SvgjsG2305"><path id="SvgjsPath2306" d="M125.00144797138785 338.7666473388672C 137.06592932679962 338.7666473388672 143.0981700045055 338.7666473388672 155.16265135991728 338.7666473388672" stroke="#323232" stroke-width="2" fill="none" marker-end="url(#SvgjsMarker2307)"></path></g></svg>